{"asset": {"version": "2.0", "generator": "CS460 Magic Fingers"}, "accessors": [{"bufferView": 0, "byteOffset": 0, "componentType": 5126, "count": 6, "type": "VEC3", "max": [45.0, 45.0, 78.0], "min": [-45.0, -45.0, -78.0]}, {"bufferView": 1, "byteOffset": 0, "componentType": 5123, "count": 9, "type": "SCALAR", "max": [5], "min": [1]}], "bufferViews": [{"buffer": 0, "byteOffset": 0, "byteLength": 72, "target": 34962}, {"buffer": 1, "byteOffset": 0, "byteLength": 54, "target": 34963}], "buffers": [{"uri": "data:application/octet-stream;base64,", "byteLength": 72}, {"uri": "data:application/octet-stream;base64,", "byteLength": 54}], "meshes": [{"primitives": [{"mode": 4, "attributes": {"POSITION": 0}, "indices": 1}]}], "nodes": [{"mesh": 0}], "scenes": [{"nodes": [0]}], "scene": 0}