{"asset":{"version":"2.0","generator":"CS460 Magic Fingers"},"accessors":[{"bufferView":0,"byteOffset":0,"componentType":5126,"count":507,"type":"VEC3","max":[1.367188,0.984375,0.851562],"min":[-1.367188,-0.984375,-0.851562]},{"bufferView":1,"byteOffset":0,"componentType":5123,"count":2904,"type":"SCALAR","max":[506],"min":[0]}],"bufferViews":[{"buffer":0,"byteOffset":0,"byteLength":6084,"target":34962},{"buffer":1,"byteOffset":0,"byteLength":5808,"target":34963}],"buffers":[{"uri":"data:application/octet-stream;base64,","byteLength":6084},{"uri":"data:application/octet-stream;base64,","byteLength":5808}],"meshes":[{"primitives":[{"mode":4,"attributes":{"POSITION":0},"indices":1}]}],"nodes":[{"mesh":0}],"scenes":[{"nodes":[0]}],"scene":0}
